<svg width="160" height="164" viewBox="0 0 160 164" fill="none" xmlns="http://www.w3.org/2000/svg">
<g id="Group 7">
<rect id="Rectangle" width="160" height="164" rx="45" fill="#093F68"/>
<g id="easter_egg_ 3">
<g id="easter_egg_ 2">
<g id="easter_egg_">
<path id="Path" d="M110.053 94.3895C110.062 96.8563 109.858 99.3195 109.445 101.752C108.761 106.012 107.228 110.097 104.935 113.772C98.7284 123.528 87.5663 128.195 75.3505 128.195C63.1348 128.195 51.9611 123.528 45.7548 113.772C44.8194 112.302 44.0192 110.753 43.3637 109.144C42.7417 107.663 42.2308 106.139 41.8353 104.585C41.6153 103.679 41.4069 102.744 41.2563 101.781C40.8523 99.3471 40.6586 96.884 40.6774 94.418C40.694 90.4305 41.158 86.457 42.0611 82.5699C42.4142 80.9514 42.8484 79.3215 43.3463 77.6973C44.2048 74.8405 45.2273 72.034 46.409 69.2914C53.2116 53.4484 64.8948 39.828 75.3448 39.828C83.809 39.828 93.13 48.8038 99.9674 60.6746C101.079 62.6066 102.133 64.6069 103.088 66.6642C103.499 67.5247 103.893 68.4024 104.275 69.28C105.451 72.0207 106.474 74.8231 107.337 77.6745C109.048 83.0901 109.962 88.7188 110.053 94.3895Z" fill="#080C20"/>
<path id="Shape" fill-rule="evenodd" clip-rule="evenodd" d="M45.2395 114.074C51.1795 123.408 62.139 128.765 75.3158 128.765C88.5216 128.765 99.4811 123.408 105.421 114.074C107.754 110.336 109.315 106.182 110.012 101.849C110.433 99.3844 110.64 96.8889 110.632 94.3895C110.528 88.6648 109.584 82.985 107.829 77.5263C106.963 74.6531 105.935 71.8296 104.749 69.0691V69.0349C104.379 68.1345 103.979 67.2341 103.592 66.4248C102.654 64.4188 101.612 62.39 100.454 60.3954C92.8232 47.1568 83.4211 39.2581 75.3158 39.2581C63.8816 39.2581 52.0363 54.7306 45.8763 69.0805C44.6871 71.8422 43.6569 74.6677 42.7905 77.5434C42.2811 79.2303 41.8411 80.883 41.4937 82.4559C40.5713 86.3699 40.0878 90.3717 40.0521 94.3895C40.0436 96.887 40.2509 99.3807 40.6716 101.844C40.799 102.755 40.9958 103.684 41.2505 104.693C41.6478 106.283 42.1645 107.841 42.7963 109.355C43.4673 110.996 44.2849 112.575 45.2395 114.074ZM46.9474 69.5364C54.2769 52.3998 65.9542 40.432 75.3158 40.432V40.3978C82.9116 40.3978 92.1574 48.2966 99.4926 60.971C100.627 62.9371 101.669 64.9431 102.596 66.9263C102.972 67.7299 103.366 68.6018 103.754 69.5193V69.5535C104.92 72.2658 105.933 75.0397 106.787 77.8626C108.481 83.2167 109.386 88.7824 109.474 94.3895C109.489 96.8232 109.296 99.254 108.895 101.656C108.208 105.845 106.687 109.86 104.419 113.469C98.6937 122.468 88.0527 127.626 75.3158 127.626C62.579 127.626 51.9669 122.462 46.2121 113.498C45.2967 112.048 44.5102 110.522 43.8616 108.939C43.2541 107.474 42.7549 105.967 42.3679 104.431C42.1305 103.456 41.9395 102.55 41.789 101.667C41.388 99.2654 41.1944 96.8346 41.21 94.4009C41.245 90.4655 41.7187 86.5459 42.6226 82.7124C42.97 81.1623 43.3984 79.5381 43.8963 77.8797C44.7538 75.0445 45.7724 72.2591 46.9474 69.5364Z" fill="#093F68"/>
<path id="Path_2" d="M100.02 60.8C100.685 62.3387 99.0353 67.8895 98.9658 69.7416C98.743 73.3077 98.3255 76.8595 97.7153 80.3815C97.6378 81.3745 97.3624 82.3427 96.9048 83.231C96.4204 84.1179 95.46 84.6504 94.4384 84.5987C93.1706 84.4334 92.4063 83.1113 92.1632 81.8803C91.92 80.6494 92.0184 79.3386 91.5437 78.176C91.069 77.0134 89.6737 76.0503 88.5274 76.6145C88.0562 76.8949 87.6811 77.3078 87.4506 77.7999C86.53 79.4697 86.2232 81.3902 85.9279 83.2652C84.9263 89.6821 82.8074 96.8514 83.2242 103.331C83.3574 105.434 83.7511 107.748 81.4527 109.064C79.1542 110.381 76.6706 108.574 75.7211 106.5C74.8411 104.585 74.8179 102.414 74.3606 100.362C73.7295 97.5125 70.7248 89.9272 67.2569 94.8226C66.3653 96.082 66.099 97.672 65.8848 99.1823C64.6092 108.139 63.8919 117.164 63.7369 126.207C63.7021 128.304 63.6558 130.538 62.4632 132.276C61.2706 134.014 58.4569 134.823 56.9921 133.302C56.1353 132.413 56.0137 131.073 55.9442 129.848C55.3653 119.693 55.6084 109.264 54.4274 99.1652C53.7384 93.3124 48.059 84.006 42.09 82.5813C42.4432 80.9628 42.8774 79.3329 43.3753 77.7087C44.2337 74.8519 45.2562 72.0454 46.4379 69.3028C53.2116 53.4484 64.8948 39.828 75.3448 39.828C83.809 39.828 93.13 48.8038 99.9674 60.6746C101.079 62.6066 102.133 64.6069 103.088 66.6642C101.901 64.869 101.114 62.6977 100.02 60.8Z" fill="#3EE9E5"/>
<path id="Shape_2" fill-rule="evenodd" clip-rule="evenodd" d="M56.5463 133.695C57.1803 134.341 58.0599 134.696 58.9721 134.675L59.3369 134.664C60.7861 134.524 62.1012 133.768 62.9379 132.595C64.2405 130.703 64.2811 128.321 64.3158 126.218C64.473 117.192 65.1903 108.184 66.4637 99.2449C66.6953 97.6549 66.95 96.2416 67.7374 95.1303C68.4611 94.1102 69.1616 93.6657 69.8274 93.7911C71.489 94.1216 73.2258 97.9456 73.8047 100.465C73.9553 101.137 74.0595 101.838 74.1579 102.516C74.3015 103.934 74.6424 105.327 75.1711 106.654C75.8243 108.12 77.0616 109.258 78.5926 109.799C79.6346 110.148 80.7794 110.029 81.7247 109.475C84.1324 108.096 83.9596 105.686 83.8207 103.749L83.8205 103.747L83.78 103.217C83.4918 98.6777 84.4662 93.7825 85.4119 89.0319L85.4242 88.9698C85.8179 86.9979 86.1769 85.0831 86.4779 83.2709C86.4901 83.1976 86.5022 83.1242 86.5144 83.0507C86.8029 81.3078 87.098 79.5248 87.9369 77.9936C88.1127 77.6038 88.4004 77.273 88.7647 77.0419C89.059 76.91 89.3968 76.91 89.6911 77.0419C90.276 77.2855 90.7399 77.7462 90.9821 78.3242C91.2292 79.0316 91.3697 79.7708 91.399 80.5183C91.4395 80.9742 91.4858 81.4472 91.5726 81.9202C91.8332 83.2481 92.7074 84.8836 94.3342 85.0945C95.5854 85.1756 96.7709 84.5355 97.3737 83.4532C97.875 82.5116 98.1801 81.4808 98.2711 80.4214C98.3521 79.8515 98.4332 79.2816 98.52 78.7117C99.0277 75.7353 99.3621 72.7328 99.5216 69.7188C99.6272 68.7206 99.7915 67.7292 100.014 66.7497C100.28 65.4161 100.506 64.2421 100.627 63.2505C100.679 63.3531 100.726 63.45 100.772 63.5526C101.299 64.7292 101.903 65.8714 102.578 66.9719C102.742 67.2271 103.08 67.3121 103.348 67.1657C103.615 67.0202 103.721 66.6963 103.592 66.4248C102.654 64.4188 101.612 62.39 100.454 60.3954C92.8232 47.1568 83.4211 39.2581 75.3158 39.2581C63.8816 39.2581 52.0363 54.7306 45.8763 69.0805C44.6871 71.8422 43.6569 74.6677 42.7905 77.5434C42.2811 79.2303 41.8411 80.883 41.4937 82.4616C41.4284 82.7629 41.6181 83.0608 41.9221 83.1341C47.7984 84.536 53.1942 93.8652 53.8253 99.2335C54.5721 105.639 54.7574 112.307 54.9311 118.747C55.0295 122.405 55.1337 126.189 55.3421 129.877C55.3884 130.965 55.4926 132.606 56.5463 133.695ZM54.989 99.1025C54.3405 93.4548 48.9621 84.1086 42.7616 82.1767H42.7442C43.0572 80.8098 43.4597 79.3879 43.8747 77.9218L43.8963 77.8455C44.7538 75.0103 45.7724 72.2249 46.9474 69.5023C54.2769 52.3656 65.9542 40.3978 75.3158 40.3978C82.9116 40.3978 92.1574 48.2966 99.4811 61.0621C99.8458 61.8885 99.3016 64.624 98.9021 66.6186C98.662 67.655 98.4918 68.7059 98.3926 69.7644C98.2275 72.7361 97.895 75.6965 97.3969 78.6319C97.3563 78.917 97.3143 79.202 97.2723 79.4871C97.2304 79.7719 97.1884 80.0568 97.1479 80.3416C97.0712 81.25 96.8197 82.1358 96.4069 82.9517C96.0344 83.638 95.3041 84.0624 94.5137 84.0516C93.5584 83.9034 92.9332 82.8035 92.7363 81.772C92.6599 81.3419 92.6058 80.9082 92.5742 80.4727C92.538 79.6132 92.3701 78.764 92.0763 77.9538C91.7139 77.08 91.0082 76.3874 90.1195 76.0332C89.5192 75.8011 88.8478 75.8259 88.2669 76.1016C87.6921 76.4334 87.2321 76.9279 86.9469 77.5206C85.977 79.2775 85.6556 81.3088 85.3681 83.1259L85.3605 83.174C85.0711 85.0033 84.7005 86.8669 84.3069 88.833L84.2998 88.8686C83.3409 93.6959 82.3507 98.6809 82.6511 103.36L82.6858 103.901C82.8247 105.77 82.9521 107.537 81.1632 108.568C80.5005 108.956 79.698 109.038 78.969 108.791C77.754 108.343 76.7746 107.43 76.2537 106.26C75.7508 105.012 75.4293 103.699 75.2984 102.362C75.1942 101.667 75.0842 100.943 74.9279 100.237C74.5284 98.4471 72.78 93.2212 70.0474 92.6855C68.8895 92.4632 67.7895 93.0673 66.7821 94.4863C65.8442 95.8085 65.5605 97.3586 65.3116 99.0968C64.0244 108.077 63.2955 117.127 63.129 126.195C63.129 128.235 63.0769 130.344 61.9711 131.957C61.3279 132.841 60.3311 133.411 59.2326 133.524C58.5587 133.61 57.8824 133.383 57.4032 132.908C56.7026 132.185 56.5811 131.034 56.5116 129.814C56.309 126.127 56.2047 122.365 56.1063 118.718L56.1009 118.521C55.9231 112.114 55.7397 105.499 54.989 99.1025Z" fill="#093F68"/>
<path id="Rectangle_2" d="M96.4223 99.2613L101.111 95.3281L104.757 99.5397L100.069 103.473L96.4223 99.2613Z" fill="#080C20"/>
<path id="Shape_3" fill-rule="evenodd" clip-rule="evenodd" d="M99.6258 103.833C99.7358 103.959 99.8966 104.032 100.066 104.032C100.204 104.032 100.337 103.984 100.442 103.895L105.132 99.963C105.249 99.8654 105.321 99.726 105.334 99.5755C105.346 99.4241 105.296 99.2744 105.195 99.1595L101.548 94.948C101.448 94.8331 101.306 94.7619 101.153 94.7502C101 94.7384 100.848 94.787 100.732 94.8853L96.0479 98.8175C95.9309 98.9152 95.858 99.0546 95.8453 99.2051C95.8318 99.3556 95.8797 99.5053 95.9784 99.6211L99.6258 103.833ZM100.129 102.659L97.2347 99.3133L101.038 96.1219L103.933 99.4672L100.129 102.659Z" fill="#093F68"/>
<path id="Path_3" d="M104.755 99.5299L126.037 82.5699C126.783 81.986 127.256 81.129 127.348 80.1953C127.44 79.2616 127.142 78.3312 126.524 77.6175C125.905 76.9046 125.019 76.4692 124.069 76.4112C123.118 76.3532 122.184 76.6775 121.481 77.3098L101.108 95.307L104.755 99.5299Z" fill="#080C20"/>
<path id="Shape_4" fill-rule="evenodd" clip-rule="evenodd" d="M104.315 99.9003C104.425 100.027 104.586 100.1 104.755 100.1C104.891 100.094 105.02 100.042 105.12 99.9516L126.396 83.003C127.57 82.0884 128.144 80.6157 127.891 79.1629C127.638 77.7102 126.599 76.5094 125.183 76.0317C123.766 75.5541 122.198 75.876 121.093 76.871L100.72 94.891C100.484 95.0983 100.461 95.4535 100.668 95.6888L104.315 99.9003ZM104.813 98.7377L101.918 95.3697L121.852 77.7543C122.44 77.226 123.222 76.9565 124.017 77.0077C125.22 77.0915 126.248 77.8908 126.61 79.0232C126.972 80.1556 126.593 81.3905 125.655 82.1368L104.813 98.7377Z" fill="#093F68"/>
<path id="Rectangle_3" d="M94.3023 102.851C93.5582 101.991 93.6621 100.689 94.533 99.9584C95.3849 99.2437 96.6526 99.3448 97.3805 100.185L99.2515 102.346C99.9956 103.206 99.8917 104.508 99.0209 105.239C98.169 105.953 96.9012 105.852 96.1733 105.012L94.3023 102.851Z" fill="#080C20"/>
<path id="Shape_5" fill-rule="evenodd" clip-rule="evenodd" d="M96.2158 105.935C96.5685 106.342 97.0857 106.573 97.6284 106.568C98.0726 106.574 98.5041 106.422 98.8442 106.141L100.002 105.16C100.381 104.848 100.615 104.398 100.651 103.912C100.691 103.428 100.532 102.948 100.211 102.579L97.3158 99.262C96.9968 98.891 96.5402 98.6611 96.0479 98.6238C95.5563 98.5896 95.0705 98.7449 94.6931 99.0569L93.5353 100.037C92.7538 100.693 92.658 101.847 93.321 102.619L96.2158 105.935ZM95.4689 99.8946C95.5976 99.7896 95.7591 99.7312 95.9263 99.7294L95.9784 99.7351C96.1655 99.7454 96.3397 99.8321 96.4589 99.9744L99.3537 103.291C99.4754 103.43 99.5358 103.611 99.5217 103.794C99.5076 103.977 99.42 104.147 99.2784 104.266L98.1205 105.246C97.9788 105.364 97.7962 105.423 97.611 105.411C97.424 105.396 97.2509 105.308 97.1305 105.166L94.2358 101.849C94.1127 101.712 94.052 101.531 94.0679 101.348C94.0847 101.165 94.1717 100.996 94.311 100.875L95.4689 99.8946Z" fill="#093F68"/>
<path id="Path_4" d="M93.5237 100.806L98.0568 106.038C98.0568 106.038 97.8021 108.192 94.0042 110.455C93.0776 111.003 92.1099 111.481 91.1095 111.885C84.521 114.569 80.5668 110.005 80.5668 110.005C84.4226 111.52 85.6847 107.97 86.9353 104.169L87.0916 103.702C88.371 99.7294 93.5237 100.806 93.5237 100.806Z" fill="#080C20"/>
<path id="Shape_6" fill-rule="evenodd" clip-rule="evenodd" d="M80.1095 110.369C81.9325 112.222 84.4367 113.274 87.0568 113.287C88.5207 113.273 89.9672 112.973 91.3121 112.404C92.3392 111.988 93.3338 111.499 94.2879 110.939C98.2942 108.557 98.63 106.198 98.63 106.101C98.6466 105.944 98.5963 105.787 98.491 105.668L93.9579 100.43C93.8778 100.332 93.7649 100.266 93.6395 100.242C91.6826 99.8319 87.6763 99.9972 86.5184 103.513L86.3621 103.992C85.6153 106.272 84.7642 108.859 83.2126 109.577C82.4184 109.889 81.5263 109.85 80.7637 109.469C80.5161 109.371 80.2329 109.453 80.0778 109.666C79.9226 109.88 79.9357 110.17 80.1095 110.369ZM90.8721 111.349C87.0684 112.905 84.2258 111.914 82.5874 110.911C82.9764 110.877 83.3564 110.776 83.7105 110.614C85.7222 109.684 86.6435 106.867 87.4571 104.378L87.4679 104.345L87.6242 103.872C88.6316 100.795 92.3253 101.183 93.2168 101.325L97.4258 106.181C97.2289 106.745 96.4763 108.312 93.6974 109.965C92.7915 110.494 91.8472 110.957 90.8721 111.349Z" fill="#093F68"/>
<path id="Path_5" d="M80.9084 105.679C81.1722 106.303 81.5062 106.895 81.9042 107.446C82.4137 108.016 83.4384 107.85 84.0463 107.537C84.6656 107.195 85.1873 106.705 85.5631 106.112C85.9568 105.542 86.2753 104.915 86.6631 104.334C86.7149 104.239 86.7932 104.159 86.8889 104.106C87.2189 103.941 87.5258 104.477 87.6126 104.71C87.7543 105.116 87.8476 105.537 87.8905 105.964C87.9542 106.414 88.0005 106.864 88.0468 107.315C88.0332 107.557 88.0707 107.8 88.1568 108.027C88.2088 108.125 88.2984 108.199 88.4058 108.232C88.4813 108.245 88.5589 108.239 88.6316 108.215C89.0426 108.061 89.4016 107.805 89.8184 107.685C90.242 107.519 90.7257 107.669 90.9763 108.044C91.1326 108.369 90.9763 108.756 91.0284 109.115C91.0816 109.508 91.3656 109.832 91.7521 109.942C92.0152 109.992 92.2838 110.007 92.551 109.987C93.0703 110.002 93.5729 110.171 93.9926 110.472C93.066 111.02 92.0983 111.498 91.0979 111.902C87.326 113.439 82.9902 112.666 80.0053 109.925C79.2959 109.294 78.8674 108.414 78.8126 107.474" fill="#3EE9E5"/>
<path id="Path_6" d="M87.0626 113.23C84.292 113.253 81.6198 112.22 79.6058 110.346C78.7847 109.612 78.2916 108.588 78.2337 107.497C78.2337 107.182 78.4929 106.927 78.8126 106.927C79.1324 106.927 79.3916 107.182 79.3916 107.497C79.4471 108.282 79.8104 109.016 80.4047 109.543C83.2276 112.121 87.3218 112.834 90.8721 111.367C91.5031 111.11 92.0937 110.842 92.6495 110.557H92.3253C92.078 110.575 91.8295 110.552 91.59 110.489C90.97 110.323 90.5128 109.806 90.4321 109.178C90.4062 108.989 90.4062 108.797 90.4321 108.608C90.4536 108.493 90.4536 108.376 90.4321 108.261C90.2995 108.166 90.1271 108.145 89.9747 108.204C89.7737 108.268 89.5797 108.352 89.3958 108.454C89.2079 108.554 89.0146 108.643 88.8168 108.722C88.633 108.794 88.4331 108.815 88.2379 108.785C87.9781 108.723 87.7559 108.558 87.6242 108.329C87.4876 108.077 87.4216 107.794 87.4331 107.508C87.4331 107.457 87.4331 107.412 87.4331 107.372V107.115C87.3926 106.756 87.3579 106.397 87.3058 106.038C87.2632 105.651 87.1818 105.269 87.0626 104.898L87.0221 104.813C86.8889 105.018 86.7674 105.229 86.64 105.44C86.4489 105.765 86.2521 106.101 86.0263 106.42C85.597 107.095 84.999 107.65 84.2895 108.033C83.3863 108.494 82.1184 108.563 81.4468 107.81C81.1145 107.412 80.8452 106.966 80.6479 106.488C80.561 106.306 80.4742 106.118 80.3758 105.918C80.2159 105.641 80.3144 105.289 80.5958 105.132C80.8772 104.975 81.2349 105.072 81.3947 105.348C81.5047 105.554 81.6031 105.759 81.7016 105.97C81.8565 106.342 82.0609 106.693 82.3095 107.013C82.57 107.298 83.2705 107.223 83.7626 106.973C84.2931 106.674 84.7389 106.248 85.0595 105.736C85.2621 105.445 85.4416 105.166 85.6384 104.818C85.8353 104.471 85.98 104.249 86.1653 103.964C86.2748 103.784 86.4306 103.637 86.6168 103.536C86.8413 103.436 87.0987 103.436 87.3231 103.536C87.7071 103.737 88.0005 104.073 88.1453 104.477C88.2962 104.924 88.399 105.387 88.4521 105.856C88.5042 106.226 88.5447 106.602 88.5853 106.995V107.246C88.5853 107.309 88.5853 107.377 88.5853 107.457C88.5885 107.493 88.5885 107.529 88.5853 107.565L88.8458 107.44C89.0936 107.301 89.3555 107.188 89.6274 107.104C90.3177 106.862 91.0852 107.14 91.451 107.765C91.5758 108.06 91.6139 108.384 91.561 108.699C91.553 108.802 91.553 108.905 91.561 109.007C91.5889 109.172 91.707 109.308 91.8679 109.361C92.0004 109.379 92.1349 109.379 92.2674 109.361H92.5279C93.1508 109.38 93.7543 109.578 94.2647 109.93C94.4233 110.041 94.5147 110.223 94.5079 110.415C94.5011 110.607 94.3967 110.782 94.23 110.882C93.2759 111.442 92.2813 111.931 91.2542 112.347C89.9287 112.907 88.5049 113.207 87.0626 113.23Z" fill="#093F68"/>
<path id="Path_7" d="M81.6437 120.662C81.7537 119.26 81.5047 117.02 80.3411 116.005C77.8226 113.8 76.0569 117.447 75.9642 119.425C75.8433 120.608 76.1375 121.797 76.7979 122.793C77.5021 123.793 78.8029 124.201 79.9647 123.785C81.1053 123.289 81.5511 121.892 81.6437 120.662Z" fill="#3EE9E5"/>
<path id="Shape_7" fill-rule="evenodd" clip-rule="evenodd" d="M76.3347 123.152C76.9749 124.018 77.9907 124.539 79.0789 124.56C79.4683 124.56 79.8534 124.479 80.2079 124.32C81.7768 123.614 82.1416 121.75 82.2226 120.707C82.35 119.054 82.0316 116.718 80.7231 115.578C79.5653 114.564 78.5695 114.661 77.9384 114.928C76.3116 115.601 75.4547 118 75.3853 119.413C75.2477 120.731 75.5837 122.053 76.3347 123.152ZM78.3784 115.977C78.5068 115.917 78.6472 115.886 78.7895 115.886C79.2334 115.918 79.6489 116.113 79.9531 116.433C80.8737 117.236 81.1747 119.168 81.0647 120.622C81.0126 121.26 80.7868 122.804 79.7158 123.289C78.8589 123.676 77.7937 123.175 77.261 122.468C76.6737 121.582 76.4179 120.522 76.5374 119.47C76.601 118.154 77.4 116.382 78.3784 115.977Z" fill="#093F68"/>
<path id="Path_8" d="M61.5947 50.428L71.9405 45.3388V35.6506L61.5947 30.5501C58.9316 29.2394 55.6316 30.8977 55.6316 33.5591V47.4474C55.6316 50.086 58.9316 51.7387 61.5947 50.428Z" fill="#080C20"/>
<path id="Shape_8" fill-rule="evenodd" clip-rule="evenodd" d="M56.9979 50.7357C57.7833 51.2105 58.6873 51.461 59.609 51.4595C60.3885 51.4606 61.1576 51.2831 61.8553 50.9409L72.2126 45.8631C72.4073 45.7666 72.5304 45.5705 72.5311 45.3559V35.6677C72.5326 35.4511 72.4092 35.2523 72.2126 35.1548L61.8669 30.0657C60.3194 29.3083 58.4853 29.3858 57.0095 30.2709C55.8119 30.9487 55.0676 32.1994 55.0526 33.5591V47.4474C55.0652 48.8049 55.8047 50.055 56.9979 50.7357ZM57.6058 31.234C58.2076 30.8663 58.9007 30.6691 59.609 30.6641C60.2117 30.6608 60.8068 30.7974 61.3458 31.063L71.3732 35.9983V44.9855L61.3458 49.9208C60.1586 50.5032 58.7509 50.4451 57.6174 49.7669C56.7646 49.2932 56.2296 48.4111 56.2105 47.4474V33.5591C56.2252 32.5957 56.7557 31.7116 57.6058 31.234Z" fill="#093F68"/>
<path id="Path_9" d="M63.1232 44.3871C62.8411 44.3896 62.5983 44.1916 62.5482 43.9184C62.4982 43.6452 62.6554 43.3762 62.9205 43.2815L69.9721 40.6429L60.6279 38.4716C60.4211 38.4248 60.2553 38.2729 60.1931 38.0732C60.1309 37.8734 60.1816 37.6562 60.3263 37.5033C60.4709 37.3504 60.6874 37.285 60.8942 37.3318L72.0737 39.9305C72.3224 39.9867 72.5045 40.1967 72.5218 40.4473C72.5391 40.6979 72.3877 40.9302 72.149 41.019L63.3316 44.3244C63.2673 44.3592 63.1963 44.3806 63.1232 44.3871Z" fill="#093F68"/>
<path id="Path_10" d="M89.089 50.428L78.7432 45.3388V35.6506L89.089 30.5558C91.7521 29.2451 95.0637 30.9034 95.0637 33.542V47.4474C95.0637 50.086 91.7521 51.7387 89.089 50.428Z" fill="#080C20"/>
<path id="Shape_9" fill-rule="evenodd" clip-rule="evenodd" d="M88.8284 50.9409C89.5261 51.2831 90.2952 51.4606 91.0747 51.4595C91.9963 51.4601 92.9 51.2096 93.6858 50.7357C94.8834 50.0579 95.6277 48.8072 95.6426 47.4474V33.5591C95.6338 32.1932 94.8887 30.9347 93.6858 30.2538C92.2099 29.3687 90.3759 29.2912 88.8284 30.0486L78.4826 35.1377C78.2861 35.2352 78.1627 35.434 78.1642 35.6506V45.3388C78.1649 45.5534 78.2879 45.7494 78.4826 45.846L88.8284 50.9409ZM89.3495 49.9207L79.3221 44.9855V36.0211L89.3495 31.0858C90.5362 30.5012 91.9451 30.5593 93.0779 31.2397C93.9307 31.7134 94.4657 32.5954 94.4847 33.5591V47.4474C94.4657 48.4111 93.9307 49.2932 93.0779 49.7669C91.9444 50.4451 90.5366 50.5032 89.3495 49.9207Z" fill="#093F68"/>
<path id="Path_11" d="M87.5605 44.3871C87.4891 44.3877 87.4182 44.3741 87.3521 44.3472L78.5348 41.0247C78.296 40.9359 78.1446 40.7036 78.1619 40.453C78.1793 40.2023 78.3613 39.9924 78.61 39.9362L89.7895 37.3375C89.9963 37.2907 90.2128 37.356 90.3574 37.509C90.5021 37.6619 90.5528 37.8791 90.4906 38.0788C90.4284 38.2786 90.2626 38.4305 90.0558 38.4773L80.7116 40.6486L87.7632 43.2473C88.0283 43.342 88.1855 43.611 88.1355 43.8842C88.0854 44.1574 87.8426 44.3554 87.5605 44.3529V44.3871Z" fill="#093F68"/>
<rect id="Rectangle_4" x="70.8058" y="34.8699" width="9.06632" height="11.2383" rx="3.91" fill="#080C20"/>
<path id="Shape_10" fill-rule="evenodd" clip-rule="evenodd" d="M73.0868 46.6667H77.6316C79.1922 46.6605 80.4584 45.4217 80.4742 43.8856V37.0982C80.471 35.5541 79.2002 34.3031 77.6316 34.3H73.0868C71.5182 34.3031 70.2474 35.5541 70.2442 37.0982V43.8685C70.2505 45.4113 71.5195 46.6604 73.0868 46.6667ZM71.3847 37.0982C71.3879 36.1836 72.1403 35.4429 73.0695 35.4398H77.6316C78.5607 35.4429 79.3131 36.1836 79.3163 37.0982V43.8685C79.3131 44.7831 78.5607 45.5238 77.6316 45.5269H73.0695C72.147 45.5239 71.3974 44.7935 71.3847 43.8856V37.0982Z" fill="#093F68"/>
</g>
</g>
</g>
</g>
</svg>
