<svg width="51" height="65" viewBox="0 0 51 65" fill="none" xmlns="http://www.w3.org/2000/svg">
<g id="Group 20">
<g id="Group 19">
<path id="Shape" fill-rule="evenodd" clip-rule="evenodd" d="M1.38037 64.9185H48.7961C49.1622 64.9185 49.5133 64.7726 49.7722 64.5129C50.0311 64.2532 50.1765 63.901 50.1765 63.5337V1.38478C50.1765 0.619987 49.5585 0 48.7961 0H1.38037C0.618014 0 0 0.619987 0 1.38478V63.5337C0 64.2985 0.618014 64.9185 1.38037 64.9185ZM47.4158 62.1489H2.76074V2.76956H47.4158V62.1489Z" fill="#093F68"/>
<path id="Shape_2" fill-rule="evenodd" clip-rule="evenodd" d="M8.46324 58.0529H37.382C37.8438 58.0505 38.2738 57.8166 38.5277 57.4297C38.7834 57.0498 38.8351 56.5676 38.6658 56.1419L24.1995 20.6777C23.9877 20.1606 23.4868 19.8219 22.9295 19.8191C22.3673 19.8163 21.8595 20.1559 21.6458 20.6777L7.1933 56.1419C7.01997 56.5654 7.06647 57.0475 7.31753 57.4297C7.5715 57.8166 8.00148 58.0505 8.46324 58.0529ZM35.3667 55.2833H10.52L22.9433 24.8182L35.3667 55.2833Z" fill="#093F68"/>
<path id="Shape_3" fill-rule="evenodd" clip-rule="evenodd" d="M15.4633 30.659H40.5584C41.3208 30.659 41.9388 30.0391 41.9388 29.2743V8.61336C41.9388 7.84856 41.3208 7.22858 40.5584 7.22858H15.4633C14.7009 7.22858 14.0829 7.84856 14.0829 8.61336V29.2743C14.0829 30.0391 14.7009 30.659 15.4633 30.659ZM39.178 27.8895H16.8988L16.8436 9.99814H39.178V27.8895Z" fill="#093F68"/>
</g>
</g>
</svg>
